<?xml version="1.0" encoding="UTF-8"?>
<svg xmlns="http://www.w3.org/2000/svg" width="900" height="460" viewBox="0 0 900 460" role="img" aria-label="Insertion Throughput — x86 (Intel Sapphire Rapids, 8 vCPUs) — Single-threaded">
  <style>
  .title { font: 700 20px -apple-system, BlinkMacSystemFont, "Segoe UI", sans-serif; fill: #0f172a; }
  .subtitle { font: 400 12px -apple-system, BlinkMacSystemFont, "Segoe UI", sans-serif; fill: #475569; }
  .panel { font: 700 14px -apple-system, BlinkMacSystemFont, "Segoe UI", sans-serif; fill: #0f172a; }
  .label { font: 600 12px -apple-system, BlinkMacSystemFont, "Segoe UI", sans-serif; fill: #0f172a; }
  .secondary { font: 400 11px -apple-system, BlinkMacSystemFont, "Segoe UI", sans-serif; fill: #475569; }
  .tick { font: 400 11px -apple-system, BlinkMacSystemFont, "Segoe UI", sans-serif; fill: #64748b; }
  .value { font: 700 11px -apple-system, BlinkMacSystemFont, "Segoe UI", sans-serif; fill: #0f172a; }
  .value-accent { font: 700 11px -apple-system, BlinkMacSystemFont, "Segoe UI", sans-serif; fill: #4338ca; }
  .axis { font: 600 12px -apple-system, BlinkMacSystemFont, "Segoe UI", sans-serif; fill: #334155; }
  .legend { font: 600 12px -apple-system, BlinkMacSystemFont, "Segoe UI", sans-serif; fill: #0f172a; }
</style>
  <rect width="100%" height="100%" fill="#ffffff" />
  <text x="84" y="32" class="title">Insertion Throughput — x86 (Intel Sapphire Rapids, 8 vCPUs) — Single-threaded</text>
  <text x="84" y="52" class="subtitle">Bulk: 100K vectors into an empty index (init + calibration fit included). Warm: 10K append, calibration frozen. Median of 5 runs.</text>
  <line x1="84" y1="352.0" x2="868" y2="352.0" stroke="#e5e7eb" stroke-width="1" />
<text x="74" y="356.0" text-anchor="end" class="tick">0K</text>
<line x1="84" y1="298.0" x2="868" y2="298.0" stroke="#e5e7eb" stroke-width="1" />
<text x="74" y="302.0" text-anchor="end" class="tick">40K</text>
<line x1="84" y1="244.0" x2="868" y2="244.0" stroke="#e5e7eb" stroke-width="1" />
<text x="74" y="248.0" text-anchor="end" class="tick">80K</text>
<line x1="84" y1="190.0" x2="868" y2="190.0" stroke="#e5e7eb" stroke-width="1" />
<text x="74" y="194.0" text-anchor="end" class="tick">120K</text>
<line x1="84" y1="136.0" x2="868" y2="136.0" stroke="#e5e7eb" stroke-width="1" />
<text x="74" y="140.0" text-anchor="end" class="tick">160K</text>
<line x1="84" y1="82.0" x2="868" y2="82.0" stroke="#e5e7eb" stroke-width="1" />
<text x="74" y="86.0" text-anchor="end" class="tick">200K</text>
<line x1="84" y1="352.0" x2="868" y2="352.0" stroke="#94a3b8" stroke-width="1.5" />
<text x="84" y="68" class="panel">Single-threaded</text>
<rect x="134.9" y="171.1" width="43.12" height="180.9" rx="6" fill="#635bff" stroke="#4338ca" stroke-width="1.5" />
<text x="156.4" y="165.1" text-anchor="middle" class="value-accent">134K</text>
<rect x="186.0" y="316.1" width="43.12" height="35.9" rx="6" fill="#9aa7b6" />
<text x="207.6" y="310.1" text-anchor="middle" class="value">27K</text>
<text x="182.0" y="374" text-anchor="middle" class="label">d=1536</text>
<text x="182.0" y="389" text-anchor="middle" class="secondary">2-bit</text>
<rect x="330.9" y="196.3" width="43.12" height="155.7" rx="6" fill="#635bff" stroke="#4338ca" stroke-width="1.5" />
<text x="352.4" y="190.3" text-anchor="middle" class="value-accent">115K</text>
<rect x="382.0" y="309.4" width="43.12" height="42.6" rx="6" fill="#9aa7b6" />
<text x="403.6" y="303.4" text-anchor="middle" class="value">32K</text>
<text x="378.0" y="374" text-anchor="middle" class="label">d=1536</text>
<text x="378.0" y="389" text-anchor="middle" class="secondary">4-bit</text>
<rect x="526.9" y="270.8" width="43.12" height="81.2" rx="6" fill="#635bff" stroke="#4338ca" stroke-width="1.5" />
<text x="548.4" y="264.8" text-anchor="middle" class="value-accent">60K</text>
<rect x="578.0" y="334.0" width="43.12" height="18.0" rx="6" fill="#9aa7b6" />
<text x="599.6" y="328.0" text-anchor="middle" class="value">13.3K</text>
<text x="574.0" y="374" text-anchor="middle" class="label">d=3072</text>
<text x="574.0" y="389" text-anchor="middle" class="secondary">2-bit</text>
<rect x="722.9" y="282.1" width="43.12" height="69.9" rx="6" fill="#635bff" stroke="#4338ca" stroke-width="1.5" />
<text x="744.4" y="276.1" text-anchor="middle" class="value-accent">52K</text>
<rect x="774.0" y="330.9" width="43.12" height="21.1" rx="6" fill="#9aa7b6" />
<text x="795.6" y="324.9" text-anchor="middle" class="value">15.6K</text>
<text x="770.0" y="374" text-anchor="middle" class="label">d=3072</text>
<text x="770.0" y="389" text-anchor="middle" class="secondary">4-bit</text>
<text x="26" y="217.0" transform="rotate(-90, 26, 217.0)" class="axis">vectors / sec</text>
<rect x="84" y="424" width="14" height="14" rx="3" fill="#635bff" stroke="#4338ca" stroke-width="1.5" />
<text x="106" y="435" class="legend">TQ bulk</text>
<rect x="180" y="424" width="14" height="14" rx="3" fill="#9aa7b6" />
<text x="202" y="435" class="legend">FAISS bulk</text>
</svg>
